<svg xmlns="http://www.w3.org/2000/svg" xml:space="preserve" viewBox="0 0 512 512"><linearGradient id="a" x1="0" x2="512" y1="256" y2="256" gradientUnits="userSpaceOnUse"><stop offset="0" stop-color="#a364ab"/><stop offset="1" stop-color="#8c3d96"/></linearGradient><circle cx="256" cy="256" r="256" fill="url(#a)"/><linearGradient id="b" x1="42.667" x2="469.333" y1="256.001" y2="256.001" gradientUnits="userSpaceOnUse"><stop offset="0" stop-color="#8c3d96"/><stop offset="1" stop-color="#a364ab"/></linearGradient><path fill="url(#b)" d="M256 469.334c-117.631 0-213.333-95.702-213.333-213.333S138.369 42.667 256 42.667c117.636 0 213.333 95.703 213.333 213.334S373.636 469.334 256 469.334z"/><path d="M313.728 144H214.32L144 214.271v99.409L214.32 384h99.408L384 313.68v-99.409L313.728 144zm.293 162.922-7.07 7.07-42.938-42.937-42.936 42.937-7.071-7.07 42.937-42.937-42.937-42.938 7.07-7.07 42.937 42.937 42.937-42.937 7.07 7.07-42.936 42.938 42.937 42.937z" opacity=".3"/><path fill="#FFF" d="M305.728 136H206.32L136 206.271v99.409L206.32 376h99.408L376 305.68v-99.409L305.728 136zm.293 162.922-7.07 7.07-42.938-42.937-42.936 42.937-7.071-7.07 42.937-42.937-42.937-42.938 7.07-7.07 42.937 42.937 42.937-42.937 7.07 7.07-42.936 42.938 42.937 42.937z"/></svg>