<svg xmlns="http://www.w3.org/2000/svg" version="1.0" viewBox="0 0 64 49"><path fill="#8553b4" d="M13.9 10.3C8.8 12.6 8 13.9 8 19.7c0 5.1.3 5.8 3.7 8.9 4.8 4.4 8.1 4.4 12.7 0 3.3-3 3.6-3.8 3.6-8.7 0-6.5-.4-7.2-5.4-9.3-4.4-1.8-5.2-1.9-8.7-.3zM24 12.4c2 .9 2.6 2 2.8 5.5.5 6.4-.4 8.7-4.2 11-4.6 2.9-6.2 2.7-10.2-1.3C9.6 24.8 9 23.5 9 19.8c0-5.3.6-6.3 5-8.2 3.5-1.5 5.4-1.4 10 .8z"/><path fill="#8553b4" d="M19.5 19c-1 1.2-2.5 1.8-3.2 1.6-1.6-.6-1.7 1-.2 2 1.2.7 6.7-4.2 5.8-5.1-.3-.3-1.4.4-2.4 1.5z"/></svg>
