<svg xmlns="http://www.w3.org/2000/svg" version="1.0" viewBox="0 0 45 35"><path fill="#8553b4" d="M7.9 4.6c-1.5 1.8-.2 4.7 2.4 5.2 2.5.5 4-3.3 2.1-5.2-1.9-2-2.8-2-4.5 0zM12 6.5c0 1.9-2 2.9-3.2 1.7-.8-.8-.7-1.6.2-2.6 1.4-1.7 3-1.2 3 .9zm7.9-1.4c-.9 1.7-.8 2.5.4 3.7 2.9 2.8 7.3-1.2 4.7-4.3-1.7-2.1-3.7-1.9-5.1.6zM25 6.5c0 2.1-1.9 2.8-3.6 1.5-1-.9-1.1-1.6-.3-2.6 1.2-1.5 3.9-.8 3.9 1.1zM5.9 13.6c-1.1 1.4-1 1.9 1 3.5 2.5 2.1 4.1 2.4 4.1 1 0-.5-1-1.1-2.2-1.3-2.9-.4-2.8-1.9.3-3.5 2.3-1.2 2.3-1.3.3-1.3-1.2 0-2.8.7-3.5 1.6zm7.8-.9c-1.2 1.1-.7 4 .9 5.3 2.3 2 6.4-2.1 4.4-4.4-1.3-1.6-4.2-2.1-5.3-.9zM18 15c0 1.3-.7 2-2 2-1.9 0-2.7-2-1.3-3.3C16 12.3 18 13.1 18 15zm6.3-1.8c3.2 1.1 3.1 3.1-.1 3.6-1.2.2-2.2.8-2.2 1.3 0 1.2.4 1.1 3.5-.3 1.4-.6 2.5-1.6 2.5-2.3 0-1.8-2.2-3.5-4.4-3.4-1.7 0-1.5.3.7 1.1zm-11.9 8.2c-1.2 3.1.4 4.7 4.3 4.4 3.3-.3 3.8-.6 3.8-2.8 0-2.2-.5-2.5-3.8-2.8-2.6-.2-3.9.1-4.3 1.2zm7.1 1.6c0 1.8-4.3 2.6-5.7 1.2-1.6-1.6.2-3.3 3-3 1.6.2 2.7.9 2.7 1.8z" /></svg>
